<svg width="18" height="10" viewBox="0 0 18 10" fill="none" xmlns="http://www.w3.org/2000/svg">
    <path fillRule="evenodd" clipRule="evenodd"
        d="M-2.60248e-08 9.26647C-1.16517e-08 8.86136 0.47291 8.53295 1.05628 8.53295L16.5483 8.53295C17.1317 8.53296 17.6046 8.86136 17.6046 9.26648C17.6046 9.67159 17.1317 10 16.5483 10L1.05627 10C0.47291 10 -4.03979e-08 9.67159 -2.60248e-08 9.26647Z"
        fill="#020617" />
    <path fillRule="evenodd" clipRule="evenodd"
        d="M-2.60248e-08 0.733522C-1.16517e-08 0.328409 0.47291 1.01872e-07 1.05628 2.27537e-07L16.5483 3.56474e-06C17.1317 3.69041e-06 17.6046 0.328413 17.6046 0.733526C17.6046 1.13864 17.1317 1.46705 16.5483 1.46705L1.05627 1.46705C0.47291 1.46705 -4.03979e-08 1.13864 -2.60248e-08 0.733522Z"
        fill="#020617" />
</svg>