<svg width="37" height="36" viewBox="0 0 37 36" fill="none" xmlns="http://www.w3.org/2000/svg">
<path d="M13.5247 9V15.7518C13.5247 16.5782 13.5247 16.9914 13.4215 17.3743C13.33 17.7135 13.1796 18.0341 12.977 18.3214C12.7484 18.6457 12.4304 18.9102 11.7944 19.4393L6.23856 24.0607C5.60255 24.5898 5.28455 24.8543 5.05593 25.1786C4.85337 25.4659 4.70294 25.7865 4.6115 26.1257C4.5083 26.5086 4.5083 26.9218 4.5083 27.7482V28.2C4.5083 29.8802 4.5083 30.7202 4.83588 31.362C5.12402 31.9265 5.5838 32.3854 6.14931 32.673C6.79221 33 7.63382 33 9.31703 33H26.7487C28.4319 33 29.2735 33 29.9164 32.673C30.4819 32.3854 30.9417 31.9265 31.2298 31.362C31.5574 30.7202 31.5574 29.8802 31.5574 28.2V27.7482C31.5574 26.9218 31.5574 26.5086 31.4542 26.1257C31.3628 25.7865 31.2123 25.4659 31.0098 25.1786C30.7812 24.8543 30.4632 24.5898 29.8271 24.0607L24.2713 19.4393C23.6353 18.9102 23.3173 18.6457 23.0887 18.3214C22.8861 18.0341 22.7357 17.7135 22.6442 17.3743C22.541 16.9914 22.541 16.5782 22.541 15.7518V9M12.4728 9H23.5929C24.0137 9 24.2241 9 24.3849 8.91825C24.5263 8.84635 24.6412 8.73161 24.7132 8.59049C24.7951 8.43006 24.7951 8.22004 24.7951 7.8V4.2C24.7951 3.77996 24.7951 3.56994 24.7132 3.40951C24.6412 3.26839 24.5263 3.15365 24.3849 3.08175C24.2241 3 24.0137 3 23.5929 3H12.4728C12.052 3 11.8416 3 11.6808 3.08175C11.5394 3.15365 11.4245 3.26839 11.3525 3.40951C11.2706 3.56994 11.2706 3.77996 11.2706 4.2V7.8C11.2706 8.22004 11.2706 8.43006 11.3525 8.59049C11.4245 8.73161 11.5394 8.84635 11.6808 8.91825C11.8416 9 12.052 9 12.4728 9ZM8.26512 25.5H27.8006C28.4988 25.5 28.848 25.5 29.1383 25.5576C30.3305 25.7944 31.2625 26.7247 31.4997 27.9147C31.5574 28.2045 31.5574 28.553 31.5574 29.25C31.5574 29.947 31.5574 30.2955 31.4997 30.5853C31.2625 31.7753 30.3305 32.7056 29.1383 32.9424C28.848 33 28.4988 33 27.8006 33H8.26512C7.56687 33 7.21774 33 6.92742 32.9424C5.73519 32.7056 4.8032 31.7753 4.56605 30.5853C4.5083 30.2955 4.5083 29.947 4.5083 29.25C4.5083 28.553 4.5083 28.2045 4.56605 27.9147C4.8032 26.7247 5.73519 25.7944 6.92742 25.5576C7.21774 25.5 7.56687 25.5 8.26512 25.5Z" stroke="#2563EB" stroke-width="2" stroke-linecap="round" stroke-linejoin="round"/>
</svg>
