<svg width="37" height="36" viewBox="0 0 37 36" fill="none" xmlns="http://www.w3.org/2000/svg">
<path d="M13.5245 31.5V20.4C13.5245 19.5599 13.5245 19.1399 13.6883 18.819C13.8324 18.5367 14.0623 18.3073 14.345 18.1635C14.6665 18 15.0873 18 15.9289 18H20.1365C20.9782 18 21.399 18 21.7204 18.1635C22.0032 18.3073 22.2331 18.5367 22.3771 18.819C22.5409 19.1399 22.5409 19.5599 22.5409 20.4V31.5M16.5566 4.146L6.36463 12.0587C5.68334 12.5876 5.3427 12.8521 5.09729 13.1833C4.8799 13.4767 4.71796 13.8072 4.61942 14.1586C4.50818 14.5553 4.50818 14.986 4.50818 15.8476V26.7C4.50818 28.3801 4.50818 29.2202 4.83575 29.8619C5.1239 30.4264 5.58367 30.8854 6.14919 31.173C6.79209 31.5 7.63369 31.5 9.31691 31.5H26.7486C28.4318 31.5 29.2734 31.5 29.9163 31.173C30.4818 30.8854 30.9416 30.4264 31.2297 29.8619C31.5573 29.2202 31.5573 28.3801 31.5573 26.7V15.8476C31.5573 14.986 31.5573 14.5553 31.446 14.1586C31.3475 13.8072 31.1856 13.4767 30.9682 13.1833C30.7228 12.8521 30.3821 12.5876 29.7008 12.0587L19.5089 4.146C18.9809 3.73612 18.7169 3.53118 18.4255 3.4524C18.1683 3.38289 17.8972 3.38289 17.64 3.4524C17.3485 3.53118 17.0845 3.73612 16.5566 4.146Z" stroke="#2563EB" stroke-width="2" stroke-linecap="round" stroke-linejoin="round"/>
</svg>
