<svg width="37" height="36" viewBox="0 0 37 36" fill="none" xmlns="http://www.w3.org/2000/svg">
<path d="M12.0217 31.5V10.5C12.0217 9.10504 12.0217 8.40756 12.1754 7.83531C12.5922 6.2824 13.8074 5.06944 15.3631 4.65333C15.9364 4.5 16.6352 4.5 18.0326 4.5C19.4301 4.5 20.1289 4.5 20.7022 4.65333C22.2579 5.06944 23.4731 6.2824 23.8899 7.83531C24.0436 8.40756 24.0436 9.10504 24.0436 10.5V20.25M24.0436 26.25V31.5M10.2185 31.5H25.8468C28.3717 31.5 29.6341 31.5 30.5984 31.0095C31.4467 30.5781 32.1363 29.8897 32.5686 29.043C33.0599 28.0804 33.0599 26.8202 33.0599 24.3V17.7C33.0599 15.1798 33.0599 13.9196 32.5686 12.957C32.1363 12.1103 31.4467 11.4219 30.5984 10.9905C29.6341 10.5 28.3717 10.5 25.8468 10.5H10.2185C7.69365 10.5 6.43124 10.5 5.46688 10.9905C4.61861 11.4219 3.92895 12.1103 3.49673 12.957C3.00537 13.9196 3.00537 15.1798 3.00537 17.7V24.3C3.00537 26.8202 3.00537 28.0804 3.49673 29.043C3.92895 29.8897 4.61861 30.5781 5.46688 31.0095C6.43124 31.5 7.69365 31.5 10.2185 31.5ZM19.2348 26.25H26.5982C27.019 26.25 27.2294 26.25 27.3901 26.1683C27.5315 26.0963 27.6464 25.9816 27.7185 25.8405C27.8004 25.6801 27.8004 25.47 27.8004 25.05V21.45C27.8004 21.03 27.8004 20.8199 27.7185 20.6595C27.6464 20.5184 27.5315 20.4037 27.3901 20.3317C27.2294 20.25 27.019 20.25 26.5982 20.25H19.2348C18.814 20.25 18.6036 20.25 18.4429 20.3317C18.3015 20.4037 18.1866 20.5184 18.1145 20.6595C18.0326 20.8199 18.0326 21.03 18.0326 21.45V25.05C18.0326 25.47 18.0326 25.6801 18.1145 25.8405C18.1866 25.9816 18.3015 26.0963 18.4429 26.1683C18.6036 26.25 18.814 26.25 19.2348 26.25Z" stroke="white" stroke-width="3" stroke-linecap="round" stroke-linejoin="round"/>
</svg>
