<svg width="498" height="354" viewBox="0 0 498 354" fill="none" xmlns="http://www.w3.org/2000/svg">
<mask id="path-1-inside-1_3492_119" fill="white">
<path d="M472 0C486.359 1.48179e-06 498 11.6406 498 26V225C498 237.15 488.15 247 476 247H310.299C295.939 247 284.299 258.641 284.299 273V332C284.299 344.15 274.449 354 262.299 354H26C11.6406 354 0 342.359 0 328V26C1.09531e-06 11.6406 11.6406 0 26 0H472Z"/>
</mask>
<path d="M472 0C486.359 1.48179e-06 498 11.6406 498 26V225C498 237.15 488.15 247 476 247H310.299C295.939 247 284.299 258.641 284.299 273V332C284.299 344.15 274.449 354 262.299 354H26C11.6406 354 0 342.359 0 328V26C1.09531e-06 11.6406 11.6406 0 26 0H472Z" fill="#0B0B0B"/>
<path d="M472 0V-1V-1V0ZM310.299 247V246V246V247ZM0 26H-1V26H0ZM472 0V1C485.807 1 497 12.1929 497 26H498H499C499 11.0883 486.912 -0.999998 472 -1V0ZM498 26H497V225H498H499V26H498ZM476 247V246H310.299V247V248H476V247ZM310.299 247V246C295.387 246 283.299 258.088 283.299 273H284.299H285.299C285.299 259.193 296.492 248 310.299 248V247ZM284.299 273H283.299V332H284.299H285.299V273H284.299ZM262.299 354V353H26V354V355H262.299V354ZM26 354V353C12.1929 353 1 341.807 1 328H0H-1C-1 342.912 11.0883 355 26 355V354ZM0 328H1V26H0H-1V328H0ZM0 26H1C1 12.1929 12.1929 1 26 1V0V-1C11.0883 -1 -0.999999 11.0883 -1 26H0ZM26 0V1H472V0V-1H26V0ZM284.299 332H283.299C283.299 343.598 273.897 353 262.299 353V354V355C275.001 355 285.299 344.703 285.299 332H284.299ZM498 225H497C497 236.598 487.598 246 476 246V247V248C488.703 248 499 237.703 499 225H498Z" fill="#424242" mask="url(#path-1-inside-1_3492_119)"/>
</svg>
